<svg xmlns="http://www.w3.org/2000/svg" xmlns:xlink="http://www.w3.org/1999/xlink" version="1.1" x="0px" y="0px" viewBox="0 0 100 125" enable-background="new 0 0 100 100" xml:space="preserve"><g><path d="M51.727,56.02L51.727,56.02c-1.278,0-3.225-0.422-5.237-2.435c-3.681-3.682-2.416-7.391-1.233-8.839   c0.044-0.055,0.092-0.106,0.141-0.156l11.366-11.365c0.049-0.049,0.101-0.097,0.155-0.141c0.246-0.201,1.574-1.202,3.603-1.202   c1.278,0,3.226,0.423,5.236,2.436c3.681,3.681,2.417,7.391,1.234,8.839c-0.045,0.055-0.093,0.106-0.142,0.155L55.484,54.678   c-0.05,0.049-0.102,0.097-0.156,0.141C55.083,55.02,53.756,56.02,51.727,56.02z M48.478,47.449   c-0.218,0.343-0.693,1.49,0.981,3.166c0.8,0.799,1.562,1.205,2.268,1.205l0,0c0.449,0,0.784-0.166,0.921-0.245L63.77,40.453   c0.217-0.343,0.692-1.491-0.982-3.166c-0.8-0.8-1.562-1.205-2.267-1.205c-0.449,0-0.784,0.164-0.921,0.245L48.478,47.449z"/><path d="M45.005,40.736c-0.299,0-0.598-0.063-0.88-0.193l-9.167-4.225c-0.161-0.075-0.314-0.169-0.451-0.282L24.2,27.591   c-0.46-0.376-0.738-0.929-0.768-1.521c-0.029-0.593,0.193-1.17,0.613-1.589l12.815-12.815c0.42-0.42,1-0.647,1.588-0.613   c0.593,0.029,1.144,0.308,1.521,0.766l8.45,10.301c0.112,0.138,0.208,0.29,0.283,0.452l4.228,9.167   c0.367,0.799,0.199,1.742-0.423,2.364l-6.02,6.019C46.087,40.524,45.55,40.736,45.005,40.736z M36.96,32.616l7.595,3.5l3.95-3.948   l-3.502-7.594l-6.81-8.301l-9.539,9.538L36.96,32.616z"/><path d="M73.9,76.851c-0.034,0-0.068-0.002-0.103-0.003c-0.593-0.028-1.145-0.307-1.521-0.766l-8.452-10.299   c-0.113-0.139-0.209-0.29-0.284-0.453l-4.225-9.167c-0.368-0.798-0.2-1.741,0.422-2.363l6.019-6.02   c0.621-0.622,1.565-0.791,2.364-0.423l9.168,4.225c0.161,0.075,0.314,0.17,0.453,0.283l10.306,8.445   c0.458,0.376,0.736,0.928,0.766,1.52c0.03,0.593-0.193,1.169-0.612,1.589L75.385,76.235C74.989,76.63,74.455,76.851,73.9,76.851z    M67.242,63.327l6.811,8.301l9.539-9.539l-8.304-6.805l-7.597-3.5l-3.948,3.95L67.242,63.327z"/><path d="M49.831,75.083c-13.695,0-24.84-11.143-24.841-24.84c0-1.159,0.94-2.1,2.1-2.1c1.16,0,2.101,0.94,2.101,2.1   c0.001,11.381,9.26,20.64,20.641,20.64c1.159,0,2.1,0.94,2.1,2.1S50.99,75.083,49.831,75.083z"/><path d="M52.005,86.9c-21.41,0-38.83-17.419-38.831-38.831c0-1.159,0.939-2.1,2.1-2.1c1.159,0,2.101,0.94,2.101,2.1   C17.375,67.165,32.91,82.7,52.005,82.7c1.159,0,2.1,0.941,2.1,2.101S53.164,86.9,52.005,86.9z"/><path d="M47.655,63.977c-6.393,0-11.595-5.202-11.597-11.596c0-1.16,0.939-2.101,2.101-2.101l0,0c1.159,0,2.1,0.939,2.1,2.101   c0.002,4.078,3.319,7.396,7.396,7.396c1.159,0,2.101,0.94,2.101,2.1S48.814,63.977,47.655,63.977z"/></g><text x="0" y="115" fill="#000000" font-size="5px" font-weight="bold" font-family="'Helvetica Neue', Helvetica, Arial-Unicode, Arial, Sans-serif">Created by Rita Cabecinhas</text><text x="0" y="120" fill="#000000" font-size="5px" font-weight="bold" font-family="'Helvetica Neue', Helvetica, Arial-Unicode, Arial, Sans-serif">from the Noun Project</text></svg>