<svg xmlns="http://www.w3.org/2000/svg" xmlns:xlink="http://www.w3.org/1999/xlink" version="1.1" x="0px" y="0px" viewBox="0 0 100 125" enable-background="new 0 0 100 100" xml:space="preserve"><path d="M43.239,74.194c-10.194,0-18.489-8.181-18.489-18.238c0-1.113,0.902-2.015,2.015-2.015s2.015,0.902,2.015,2.015  c0,7.834,6.486,14.208,14.458,14.208c1.113,0,2.015,0.902,2.015,2.015C45.255,73.292,44.352,74.194,43.239,74.194z M45.422,81.527  c0-1.114-0.902-2.015-2.015-2.015c-13.587,0-24.64-10.45-24.64-23.295c0-1.113-0.902-2.015-2.015-2.015s-2.015,0.902-2.015,2.015  c0,15.068,12.862,27.325,28.67,27.325C44.52,83.542,45.422,82.641,45.422,81.527z M45.43,92.358c0-1.114-0.902-2.015-2.015-2.015  c-19.023,0-34.5-15.476-34.5-34.499c0-1.113-0.902-2.015-2.015-2.015s-2.015,0.902-2.015,2.015c0,21.244,17.284,38.529,38.53,38.529  C44.527,94.373,45.43,93.472,45.43,92.358z M68.523,52.204l4.419-4.419c0.653-0.653,0.718-1.647,0.145-2.22L54.412,26.89  c-0.573-0.573-1.567-0.508-2.22,0.145L30.904,48.323c-0.653,0.653-0.718,1.647-0.145,2.22l18.675,18.675  c0.573,0.573,1.567,0.508,2.22-0.145l4.419-4.419 M76.997,36.384c0.351-0.351,0.337-0.934-0.031-1.302l-12-12  c-0.368-0.368-0.951-0.382-1.302-0.031L52.228,34.487c-0.351,0.351-0.337,0.934,0.031,1.302l12,12  c0.368,0.368,0.951,0.382,1.302,0.031L76.997,36.384z M44.861,31.702c0.573-0.573,0.573-1.502,0-2.075l-24.9-24.9  c-0.573-0.573-1.502-0.573-2.075,0L7.512,15.102c-0.573,0.573-0.573,1.502,0,2.075l24.9,24.9c0.573,0.573,1.502,0.573,2.075,0  L44.861,31.702z M94.779,82.802c0.573-0.573,0.573-1.502,0-2.075l-24.9-24.9c-0.573-0.573-1.502-0.573-2.075,0L57.429,66.203  c-0.573,0.573-0.573,1.502,0,2.075l24.9,24.9c0.573,0.573,1.502,0.573,2.075,0L94.779,82.802z"/><text x="0" y="115" fill="#000000" font-size="5px" font-weight="bold" font-family="'Helvetica Neue', Helvetica, Arial-Unicode, Arial, Sans-serif">Created by Guillermo Vera</text><text x="0" y="120" fill="#000000" font-size="5px" font-weight="bold" font-family="'Helvetica Neue', Helvetica, Arial-Unicode, Arial, Sans-serif">from the Noun Project</text></svg>